<svg width="220" height="45" viewBox="0 0 220 45" fill="none" xmlns="http://www.w3.org/2000/svg">
<g clip-path="url(#clip0_4226_78829)">
<path d="M42.9811 43.8457C41.2306 43.7155 39.2846 43.2921 37.4527 42.657C34.7007 41.6962 32.3069 40.4749 27.837 37.7474C22.1131 34.2463 19.5891 33.196 15.2576 32.5283C14.2235 32.3655 13.7594 32.3411 11.4715 32.3411C8.63812 32.3329 7.54709 32.4225 4.87651 32.8622C3.67149 33.0657 1.03348 33.6031 0.61824 33.7252C-0.0331205 33.9288 2.75959 32.6912 4.34728 32.0724C12.701 28.8237 20.1998 28.3678 27.4462 30.672C28.0161 30.8592 29.5305 31.421 30.8088 31.9258C35.4823 33.7822 38.332 34.7104 41.1084 35.2966C42.7206 35.6386 43.6813 35.7363 44.8293 35.6956C46.303 35.6386 47.0195 35.3292 47.3452 34.6208C47.8419 33.5217 47.0114 31.8118 44.8701 29.5565L44.2024 28.8481L44.7968 29.2308C47.6628 31.0628 49.91 33.1716 51.1068 35.1501C53.0528 38.358 52.3281 41.3054 49.2097 42.8768C48.1269 43.4223 46.93 43.7236 45.3423 43.8539C44.2675 43.9434 44.1617 43.9434 42.9811 43.8457Z" fill="#4F46E5"/>
<path d="M12.5703 28.1887C12.5703 27.7979 18.1232 12.8329 18.8722 11.2045C22.8048 2.6472 29.8965 -1.69249 35.8565 0.815248C38.0059 1.72715 40.1799 3.75451 41.2383 5.84701C41.564 6.49023 41.8815 7.27186 41.8815 7.42656C41.8815 7.54869 40.8312 8.31404 40.1473 8.68043C39.4227 9.0631 38.6166 9.31551 37.9001 9.38064L37.3627 9.42135L37.1429 9.05496C36.7602 8.4036 35.9623 7.97207 34.7166 7.73596C33.6255 7.5324 33.7151 7.58126 33.7721 7.14973C33.8861 6.32739 34.6677 5.00838 35.7099 3.91735C36.0681 3.53468 36.3368 3.22528 36.3124 3.22528C36.1984 3.22528 35.5471 3.59167 34.9608 3.98249C32.6974 5.4969 31.6715 7.70339 31.9483 10.4472C32.1274 12.1733 32.4938 13.5493 33.821 17.3598C35.1888 21.2843 35.7913 23.3116 36.1414 25.2494C36.288 26.0229 36.5078 27.7572 36.4671 27.7979C36.4508 27.8141 35.9297 27.7164 35.3109 27.5862C29.3591 26.2997 24.4251 26.1206 19.0432 26.9999C17.8789 27.1872 13.6206 27.9933 12.7576 28.1805C12.6517 28.205 12.5703 28.205 12.5703 28.1887Z" fill="#4F46E5"/>
<path d="M208.306 33.1782C204.177 32.4991 201.121 29.7172 200.125 25.7304C199.829 24.5584 199.862 21.5465 200.179 20.3855C200.815 18.0854 202.26 15.9934 204.068 14.7558C204.9 14.1863 206.324 13.5619 207.386 13.2991C208.755 12.9596 211.045 12.9596 212.304 13.2991C216.576 14.4491 219.478 18.4249 219.478 23.1346V24.1641H210.606H201.746L201.8 24.5256C202.293 27.3514 203.761 29.4543 206.006 30.5496C207.364 31.2177 208.087 31.4039 209.686 31.4696C212.797 31.612 215.382 30.4181 216.795 28.1838C216.893 28.0304 217.003 28.0633 217.671 28.4576C218.098 28.7095 218.459 28.9176 218.481 28.9395C218.558 29.0052 217.715 30.0567 217.09 30.6481C215.239 32.4115 212.917 33.2658 210.004 33.2439C209.226 33.233 208.46 33.2001 208.306 33.1782ZM217.539 21.8969C216.959 17.8773 214.527 15.3144 210.836 14.8434C209.139 14.6244 207.047 15.0515 205.579 15.9168C204.681 16.4425 203.542 17.5597 203.016 18.4359C202.523 19.2464 202.009 20.6155 201.899 21.3712C201.855 21.6779 201.8 22.0065 201.768 22.116C201.724 22.2912 202.151 22.3022 209.664 22.3022H217.605L217.539 21.8969Z" fill="#4F46E5"/>
<path d="M159.896 19.2356V5.6543H160.826H161.757L161.779 11.4045L161.812 17.1656L162.36 16.3222C163.072 15.2379 164.003 14.3945 165.098 13.8579C166.423 13.2116 167.157 13.0583 168.822 13.0583C171.1 13.0583 172.601 13.595 174.014 14.9093C174.835 15.676 175.35 16.4427 175.744 17.4613C176.303 18.9509 176.325 19.3013 176.325 26.3111V32.817H175.394H174.474L174.441 26.0591C174.408 19.849 174.386 19.2356 174.2 18.688C173.532 16.6727 172.217 15.4131 170.301 14.9531C169.468 14.756 167.672 14.7779 166.796 15.0079C164.923 15.4898 163.411 16.7056 162.645 18.3813C161.834 20.1228 161.834 20.1118 161.79 26.8258L161.747 32.817H160.816H159.896V19.2356Z" fill="#4F46E5"/>
<path d="M181.91 23.1238V13.4307H182.841H183.772V23.1238V32.8169H182.841H181.91V23.1238Z" fill="#4F46E5"/>
<path d="M189.905 23.1236V13.4305H190.836H191.767L191.789 15.3691L191.822 17.3187L192.14 16.7053C193.191 14.6134 195.425 13.2224 197.715 13.2114H198.339V14.0876V14.9639H197.879C195.71 14.9748 193.487 16.3658 192.589 18.2606C191.822 19.9145 191.833 19.7173 191.789 26.6066L191.756 32.8167H190.825H189.905V23.1236Z" fill="#4F46E5"/>
<path d="M182.151 8.40343C181.439 7.94342 181.198 7.18768 181.538 6.46481C182.118 5.26001 183.969 5.45716 184.33 6.77148C184.418 7.12197 184.396 7.2753 184.221 7.6696C183.969 8.25009 183.608 8.51296 182.972 8.57867C182.633 8.61153 182.414 8.56772 182.151 8.40343Z" fill="#4F46E5"/>
<path d="M117.674 38.3226C115.549 38.1693 113.654 37.6764 111.814 36.8112C110.357 36.1321 110.401 36.3293 111.277 34.5111C111.683 33.6459 112.066 32.9558 112.11 32.9777C115.319 34.5878 117.038 35.0368 119.426 34.8945C121.299 34.774 122.493 34.314 123.479 33.3392C124.552 32.2658 124.957 31.0391 124.957 28.8924V27.5014L123.95 28.4981C122.832 29.6043 121.901 30.2067 120.795 30.5572C118.55 31.2472 116.239 31.0282 114.081 29.9219C113.293 29.5167 112.876 29.1991 112.132 28.4652C110.237 26.5923 109.404 24.347 109.547 21.5103C109.722 18.1149 111.343 15.4534 114.114 14.0186C115.385 13.3615 116.283 13.1205 117.739 13.0548C120.401 12.9343 122.252 13.6243 124.136 15.4534C124.552 15.8696 124.913 16.1982 124.924 16.1982C124.946 16.1982 124.957 15.563 124.957 14.7744V13.3505H127.093H129.229V21.817C129.218 30.9296 129.218 31.0829 128.626 32.8354C127.75 35.4749 125.801 37.1836 122.832 37.9393C121.923 38.1693 121.277 38.246 119.371 38.3665C119.043 38.3884 118.276 38.3665 117.674 38.3226ZM120.85 27.129C122.361 26.8114 123.884 25.6394 124.508 24.3032C125.483 22.2441 125.089 19.8236 123.533 18.2683C122.46 17.1949 121.047 16.6363 119.371 16.6363C117.75 16.6363 116.513 17.0963 115.45 18.093C114.355 19.1335 113.895 20.2726 113.895 21.9484C113.895 23.6241 114.355 24.7632 115.45 25.8037C116.852 27.129 118.714 27.5781 120.85 27.129Z" fill="#1D1F31"/>
<path d="M147.793 32.8463C146.622 32.682 145.734 32.4082 144.617 31.8606C142.164 30.6667 140.422 28.5638 139.568 25.7709C139.294 24.8837 139.261 24.6428 139.272 23.0437C139.272 21.0174 139.448 20.1741 140.181 18.6297C140.992 16.9321 142.054 15.6944 143.577 14.6758C145.285 13.5367 147.027 13.022 149.195 13.022C151.999 13.022 154.245 13.8653 156.085 15.6178L156.72 16.2311L156.26 16.7349C156.008 17.0087 155.417 17.644 154.935 18.1369L154.069 19.035L153.314 18.3997C151.955 17.2607 150.685 16.7459 149.163 16.7459C145.493 16.7349 142.832 20.3712 143.62 24.3032C144.004 26.209 145.143 27.7971 146.654 28.5419C147.574 29.0019 148.133 29.1115 149.36 29.1224C151.003 29.1224 152.459 28.531 153.752 27.3152L154.267 26.8333L155.559 28.1257L156.84 29.4072L156.041 30.1739C154.661 31.4772 153.325 32.233 151.671 32.6273C150.63 32.8682 148.735 32.9778 147.793 32.8463Z" fill="#1D1F31"/>
<path d="M95.0557 32.6275C93.7414 32.277 92.909 31.8061 92.0328 30.9408C91.2332 30.1413 90.7842 29.3746 90.5761 28.4546C90.4008 27.7317 90.4337 25.9683 90.6199 25.2345C91.1456 23.2301 92.7666 21.7953 95.2419 21.171C97.2572 20.6672 99.9516 20.711 102.263 21.2915C102.843 21.4448 103.369 21.5653 103.424 21.5653C103.478 21.5653 103.5 21.2039 103.456 20.722C103.325 18.8162 102.493 17.71 100.751 17.1185C100.269 16.9542 99.8202 16.9104 98.5606 16.9104C96.7534 16.9104 95.68 17.0966 94.1686 17.6662L93.2376 18.0166L92.6681 16.3737C92.3504 15.4756 92.1314 14.698 92.1752 14.6542C92.3395 14.5008 94.4095 13.778 95.2967 13.5699C97.4434 13.0551 100.346 13.0113 102.175 13.4603C104.869 14.1175 106.6 15.8042 107.356 18.4876C107.575 19.2872 107.586 19.5719 107.629 25.9245L107.662 32.518H105.581H103.489V31.3132C103.489 30.656 103.467 30.1084 103.445 30.1084C103.424 30.1084 103.106 30.3932 102.745 30.7437C101.923 31.5323 100.948 32.1127 99.8202 32.4851C98.5935 32.8904 96.2824 32.9561 95.0557 32.6275ZM99.9625 29.6155C101.474 29.2541 102.712 28.345 103.237 27.184C103.489 26.6474 103.522 26.4064 103.533 25.4207L103.544 24.2706L102.975 24.0735C101.343 23.5149 98.2868 23.3835 96.9506 23.7997C96.151 24.0516 95.3843 24.6102 95.0119 25.2016C94.6395 25.815 94.5081 26.9102 94.7162 27.6769C94.9572 28.5422 95.9867 29.3965 97.1039 29.6593C97.761 29.8127 99.2068 29.7908 99.9625 29.6155Z" fill="#1D1F31"/>
<path d="M59.6787 22.9342V13.3506H61.8145H63.9503V14.862L63.9612 16.3625L64.3007 15.9244C64.9579 15.092 66.0422 14.1391 66.7761 13.7558C67.7727 13.2301 68.6599 13.022 69.8866 13.022C71.7924 13.022 73.1834 13.5696 74.4101 14.8182C74.8372 15.2454 75.2534 15.7601 75.3301 15.9573C75.4068 16.1435 75.5382 16.3078 75.6039 16.2968C75.6696 16.2968 75.9106 16.0668 76.1406 15.782C77.5973 13.9968 79.7002 13.022 82.077 13.022C85.297 13.022 87.4876 14.5663 88.3638 17.4469C88.7252 18.6297 88.8129 20.2946 88.8129 26.6362V32.5177H86.6223H84.4318V26.5157C84.4318 20.0426 84.4208 19.8784 83.8403 18.7283C83.1394 17.3592 81.4855 16.6473 79.7331 16.9649C78.1559 17.2497 77.1263 18.1807 76.5897 19.8126C76.4035 20.3603 76.3816 20.9736 76.3487 26.4719L76.3158 32.5177H74.191H72.0662L72.0333 26.3076C71.9895 20.1631 71.9895 20.0755 71.7486 19.4293C71.2119 18.0054 70.2809 17.2059 68.8571 16.954C68.2656 16.8445 67.948 16.8445 67.3784 16.954C65.8341 17.2388 64.8484 18.104 64.246 19.6812C64.016 20.2946 64.005 20.4588 63.9722 26.4171L63.9393 32.5177H61.8145H59.6787V22.9342Z" fill="#1D1F31"/>
<path d="M132.624 22.9342V13.3506H134.76H136.896V22.9342V32.5178H134.76H132.624V22.9342Z" fill="#1D1F31"/>
<path d="M132.404 8.25769V6.23145H134.759H137.114V8.25769V10.2839H134.759H132.404V8.25769Z" fill="#1D1F31"/>
</g>
<defs>
<clipPath id="clip0_4226_78829">
<rect width="218.957" height="44.0298" fill="white" transform="translate(0.521484)"/>
</clipPath>
</defs>
</svg>
